<?xml version="1.0" encoding="UTF-8" standalone="no"?>
<!DOCTYPE svg PUBLIC "-//W3C//DTD SVG 1.1//EN"
 "http://www.w3.org/Graphics/SVG/1.1/DTD/svg11.dtd">
<!-- Generated by graphviz version 2.40.1 (20161225.0304)
 -->
<!-- Title: dependencies Pages: 1 -->
<svg width="1477pt" height="211pt"
 viewBox="0.00 0.00 1477.00 211.00" xmlns="http://www.w3.org/2000/svg" xmlns:xlink="http://www.w3.org/1999/xlink">
<g id="graph0" class="graph" transform="scale(1 1) rotate(0) translate(4 207)">
<title>dependencies</title>
<polygon fill="#ffffff" stroke="transparent" points="-4,4 -4,-207 1473,-207 1473,4 -4,4"/>
<text text-anchor="start" x="713.5091" y="-42.4" font-family="sans-serif" font-weight="bold" font-size="14.00" fill="#000000">Legend</text>
<polygon fill="#ffffb3" stroke="transparent" points="500.5,-10 500.5,-30 520.5,-30 520.5,-10 500.5,-10"/>
<text text-anchor="start" x="524.129" y="-15.4" font-family="sans-serif" font-size="14.00" fill="#000000"> &#160;Declarations</text>
<polygon fill="#8dd3c7" stroke="transparent" points="613.5,-10 613.5,-30 633.5,-30 633.5,-10 613.5,-10"/>
<text text-anchor="start" x="637.2251" y="-15.4" font-family="sans-serif" font-size="14.00" fill="#000000"> &#160;Module</text>
<polygon fill="#80b1d3" stroke="transparent" points="699.5,-10 699.5,-30 719.5,-30 719.5,-10 699.5,-10"/>
<text text-anchor="start" x="723.2812" y="-15.4" font-family="sans-serif" font-size="14.00" fill="#000000"> &#160;Bootstrap</text>
<polygon fill="#fdb462" stroke="transparent" points="796.5,-10 796.5,-30 816.5,-30 816.5,-10 796.5,-10"/>
<text text-anchor="start" x="820.1732" y="-15.4" font-family="sans-serif" font-size="14.00" fill="#000000"> &#160;Providers</text>
<polygon fill="#fb8072" stroke="transparent" points="892.5,-10 892.5,-30 912.5,-30 912.5,-10 892.5,-10"/>
<text text-anchor="start" x="916.2258" y="-15.4" font-family="sans-serif" font-size="14.00" fill="#000000"> &#160;Exports</text>
<g id="clust1" class="cluster">
<title>cluster_AnalyticsModule</title>
<polygon fill="none" stroke="#000000" stroke-dasharray="1,5" points="8,-70 8,-195 1461,-195 1461,-70 8,-70"/>
</g>
<g id="clust2" class="cluster">
<title>cluster_AnalyticsModule_declarations</title>
<polygon fill="none" stroke="#000000" points="492,-78 492,-130 1453,-130 1453,-78 492,-78"/>
</g>
<g id="clust9" class="cluster">
<title>cluster_AnalyticsModule_imports</title>
<polygon fill="none" stroke="#000000" points="194,-78 194,-130 484,-130 484,-78 194,-78"/>
</g>
<g id="clust12" class="cluster">
<title>cluster_AnalyticsModule_providers</title>
<polygon fill="none" stroke="#000000" points="16,-78 16,-130 186,-130 186,-78 16,-78"/>
</g>
<!-- AnalyticsComponent -->
<g id="node1" class="node">
<title>AnalyticsComponent</title>
<polygon fill="#ffffb3" stroke="#000000" points="1445.4846,-122 1310.5154,-122 1310.5154,-86 1445.4846,-86 1445.4846,-122"/>
<text text-anchor="middle" x="1378" y="-99.8" font-family="Times,serif" font-size="14.00" fill="#000000">AnalyticsComponent</text>
</g>
<!-- AnalyticsModule -->
<g id="node7" class="node">
<title>AnalyticsModule</title>
<polygon fill="#8dd3c7" stroke="#000000" points="793.7022,-187 790.7022,-191 769.7022,-191 766.7022,-187 680.2978,-187 680.2978,-151 793.7022,-151 793.7022,-187"/>
<text text-anchor="middle" x="737" y="-164.8" font-family="Times,serif" font-size="14.00" fill="#000000">AnalyticsModule</text>
</g>
<!-- AnalyticsComponent&#45;&gt;AnalyticsModule -->
<g id="edge1" class="edge">
<title>AnalyticsComponent&#45;&gt;AnalyticsModule</title>
<path fill="none" stroke="#000000" d="M1378,-122.0109C1378,-144.4852 1378,-180 1378,-180 1378,-180 803.6033,-180 803.6033,-180"/>
<polygon fill="#000000" stroke="#000000" points="803.6033,-176.5001 793.6033,-180 803.6033,-183.5001 803.6033,-176.5001"/>
</g>
<!-- BarChartComponent -->
<g id="node2" class="node">
<title>BarChartComponent</title>
<polygon fill="#ffffb3" stroke="#000000" points="1292.1471,-122 1159.8529,-122 1159.8529,-86 1292.1471,-86 1292.1471,-122"/>
<text text-anchor="middle" x="1226" y="-99.8" font-family="Times,serif" font-size="14.00" fill="#000000">BarChartComponent</text>
</g>
<!-- BarChartComponent&#45;&gt;AnalyticsModule -->
<g id="edge2" class="edge">
<title>BarChartComponent&#45;&gt;AnalyticsModule</title>
<path fill="none" stroke="#000000" d="M1226,-122.1289C1226,-142.5724 1226,-173 1226,-173 1226,-173 804.0515,-173 804.0515,-173"/>
<polygon fill="#000000" stroke="#000000" points="804.0516,-169.5001 794.0515,-173 804.0515,-176.5001 804.0516,-169.5001"/>
</g>
<!-- CountersComponent -->
<g id="node3" class="node">
<title>CountersComponent</title>
<polygon fill="#ffffb3" stroke="#000000" points="1141.8795,-122 1010.1205,-122 1010.1205,-86 1141.8795,-86 1141.8795,-122"/>
<text text-anchor="middle" x="1076" y="-99.8" font-family="Times,serif" font-size="14.00" fill="#000000">CountersComponent</text>
</g>
<!-- CountersComponent&#45;&gt;AnalyticsModule -->
<g id="edge3" class="edge">
<title>CountersComponent&#45;&gt;AnalyticsModule</title>
<path fill="none" stroke="#000000" d="M1076,-122.2667C1076,-140.5552 1076,-166 1076,-166 1076,-166 803.741,-166 803.741,-166"/>
<polygon fill="#000000" stroke="#000000" points="803.741,-162.5001 793.741,-166 803.7409,-169.5001 803.741,-162.5001"/>
</g>
<!-- CounterHeaderComponent -->
<g id="node4" class="node">
<title>CounterHeaderComponent</title>
<polygon fill="#ffffb3" stroke="#000000" points="992.3459,-122 825.6541,-122 825.6541,-86 992.3459,-86 992.3459,-122"/>
<text text-anchor="middle" x="909" y="-99.8" font-family="Times,serif" font-size="14.00" fill="#000000">CounterHeaderComponent</text>
</g>
<!-- CounterHeaderComponent&#45;&gt;AnalyticsModule -->
<g id="edge4" class="edge">
<title>CounterHeaderComponent&#45;&gt;AnalyticsModule</title>
<path fill="none" stroke="#000000" d="M909,-122.0091C909,-138.0494 909,-159 909,-159 909,-159 803.7959,-159 803.7959,-159"/>
<polygon fill="#000000" stroke="#000000" points="803.796,-155.5001 793.7959,-159 803.7959,-162.5001 803.796,-155.5001"/>
</g>
<!-- DashboardComponent -->
<g id="node5" class="node">
<title>DashboardComponent</title>
<polygon fill="#ffffb3" stroke="#000000" points="807.9734,-122 666.0266,-122 666.0266,-86 807.9734,-86 807.9734,-122"/>
<text text-anchor="middle" x="737" y="-99.8" font-family="Times,serif" font-size="14.00" fill="#000000">DashboardComponent</text>
</g>
<!-- DashboardComponent&#45;&gt;AnalyticsModule -->
<g id="edge5" class="edge">
<title>DashboardComponent&#45;&gt;AnalyticsModule</title>
<path fill="none" stroke="#000000" d="M737,-122.1061C737,-122.1061 737,-140.991 737,-140.991"/>
<polygon fill="#000000" stroke="#000000" points="733.5001,-140.9909 737,-150.991 740.5001,-140.991 733.5001,-140.9909"/>
</g>
<!-- GraphChartComponent -->
<g id="node6" class="node">
<title>GraphChartComponent</title>
<polygon fill="#ffffb3" stroke="#000000" points="647.9172,-122 500.0828,-122 500.0828,-86 647.9172,-86 647.9172,-122"/>
<text text-anchor="middle" x="574" y="-99.8" font-family="Times,serif" font-size="14.00" fill="#000000">GraphChartComponent</text>
</g>
<!-- GraphChartComponent&#45;&gt;AnalyticsModule -->
<g id="edge6" class="edge">
<title>GraphChartComponent&#45;&gt;AnalyticsModule</title>
<path fill="none" stroke="#000000" d="M574,-122.0091C574,-138.0494 574,-159 574,-159 574,-159 669.9905,-159 669.9905,-159"/>
<polygon fill="#000000" stroke="#000000" points="669.9905,-162.5001 679.9905,-159 669.9905,-155.5001 669.9905,-162.5001"/>
</g>
<!-- AnalyticsRoutingModule -->
<g id="node8" class="node">
<title>AnalyticsRoutingModule</title>
<polygon fill="#8dd3c7" stroke="#000000" points="476.3201,-122 473.3201,-126 452.3201,-126 449.3201,-122 317.6799,-122 317.6799,-86 476.3201,-86 476.3201,-122"/>
<text text-anchor="middle" x="397" y="-99.8" font-family="Times,serif" font-size="14.00" fill="#000000">AnalyticsRoutingModule</text>
</g>
<!-- AnalyticsRoutingModule&#45;&gt;AnalyticsModule -->
<g id="edge7" class="edge">
<title>AnalyticsRoutingModule&#45;&gt;AnalyticsModule</title>
<path fill="none" stroke="#000000" d="M397,-122.2667C397,-140.5552 397,-166 397,-166 397,-166 670.0916,-166 670.0916,-166"/>
<polygon fill="#000000" stroke="#000000" points="670.0917,-169.5001 680.0916,-166 670.0916,-162.5001 670.0917,-169.5001"/>
</g>
<!-- SharedModule -->
<g id="node9" class="node">
<title>SharedModule</title>
<polygon fill="#8dd3c7" stroke="#000000" points="300.4231,-122 297.4231,-126 276.4231,-126 273.4231,-122 201.5769,-122 201.5769,-86 300.4231,-86 300.4231,-122"/>
<text text-anchor="middle" x="251" y="-99.8" font-family="Times,serif" font-size="14.00" fill="#000000">SharedModule</text>
</g>
<!-- SharedModule&#45;&gt;AnalyticsModule -->
<g id="edge8" class="edge">
<title>SharedModule&#45;&gt;AnalyticsModule</title>
<path fill="none" stroke="#000000" d="M251,-122.1289C251,-142.5724 251,-173 251,-173 251,-173 670.2985,-173 670.2985,-173"/>
<polygon fill="#000000" stroke="#000000" points="670.2985,-176.5001 680.2985,-173 670.2984,-169.5001 670.2985,-176.5001"/>
</g>
<!-- AnalyticsService -->
<g id="node10" class="node">
<title>AnalyticsService</title>
<ellipse fill="#fdb462" stroke="#000000" cx="101" cy="-104" rx="77.0004" ry="18"/>
<text text-anchor="middle" x="101" y="-99.8" font-family="Times,serif" font-size="14.00" fill="#000000">AnalyticsService</text>
</g>
<!-- AnalyticsService&#45;&gt;AnalyticsModule -->
<g id="edge9" class="edge">
<title>AnalyticsService&#45;&gt;AnalyticsModule</title>
<path fill="none" stroke="#000000" d="M101,-122.0109C101,-144.4852 101,-180 101,-180 101,-180 670.2797,-180 670.2797,-180"/>
<polygon fill="#000000" stroke="#000000" points="670.2797,-183.5001 680.2797,-180 670.2796,-176.5001 670.2797,-183.5001"/>
</g>
</g>
</svg>
