<?xml version="1.0" encoding="UTF-8" standalone="no"?>
<!DOCTYPE svg PUBLIC "-//W3C//DTD SVG 1.1//EN"
 "http://www.w3.org/Graphics/SVG/1.1/DTD/svg11.dtd">
<!-- Generated by graphviz version 2.40.1 (20161225.0304)
 -->
<!-- Title: dependencies Pages: 1 -->
<svg width="3216pt" height="211pt"
 viewBox="0.00 0.00 3216.00 211.00" xmlns="http://www.w3.org/2000/svg" xmlns:xlink="http://www.w3.org/1999/xlink">
<g id="graph0" class="graph" transform="scale(1 1) rotate(0) translate(4 207)">
<title>dependencies</title>
<polygon fill="#ffffff" stroke="transparent" points="-4,4 -4,-207 3212,-207 3212,4 -4,4"/>
<text text-anchor="start" x="1583.0091" y="-42.4" font-family="sans-serif" font-weight="bold" font-size="14.00" fill="#000000">Legend</text>
<polygon fill="#ffffb3" stroke="transparent" points="1370,-10 1370,-30 1390,-30 1390,-10 1370,-10"/>
<text text-anchor="start" x="1393.629" y="-15.4" font-family="sans-serif" font-size="14.00" fill="#000000"> &#160;Declarations</text>
<polygon fill="#8dd3c7" stroke="transparent" points="1483,-10 1483,-30 1503,-30 1503,-10 1483,-10"/>
<text text-anchor="start" x="1506.7251" y="-15.4" font-family="sans-serif" font-size="14.00" fill="#000000"> &#160;Module</text>
<polygon fill="#80b1d3" stroke="transparent" points="1569,-10 1569,-30 1589,-30 1589,-10 1569,-10"/>
<text text-anchor="start" x="1592.7812" y="-15.4" font-family="sans-serif" font-size="14.00" fill="#000000"> &#160;Bootstrap</text>
<polygon fill="#fdb462" stroke="transparent" points="1666,-10 1666,-30 1686,-30 1686,-10 1666,-10"/>
<text text-anchor="start" x="1689.6732" y="-15.4" font-family="sans-serif" font-size="14.00" fill="#000000"> &#160;Providers</text>
<polygon fill="#fb8072" stroke="transparent" points="1762,-10 1762,-30 1782,-30 1782,-10 1762,-10"/>
<text text-anchor="start" x="1785.7258" y="-15.4" font-family="sans-serif" font-size="14.00" fill="#000000"> &#160;Exports</text>
<g id="clust1" class="cluster">
<title>cluster_StreamsModule</title>
<polygon fill="none" stroke="#000000" stroke-dasharray="1,5" points="8,-70 8,-195 3200,-195 3200,-70 8,-70"/>
</g>
<g id="clust2" class="cluster">
<title>cluster_StreamsModule_declarations</title>
<polygon fill="none" stroke="#000000" points="1270,-78 1270,-130 3192,-130 3192,-78 1270,-78"/>
</g>
<g id="clust14" class="cluster">
<title>cluster_StreamsModule_imports</title>
<polygon fill="none" stroke="#000000" points="874,-78 874,-130 1262,-130 1262,-78 874,-78"/>
</g>
<g id="clust17" class="cluster">
<title>cluster_StreamsModule_providers</title>
<polygon fill="none" stroke="#000000" points="16,-78 16,-130 866,-130 866,-78 16,-78"/>
</g>
<!-- StreamsComponent -->
<g id="node1" class="node">
<title>StreamsComponent</title>
<polygon fill="#ffffb3" stroke="#000000" points="3184.4313,-122 3057.5687,-122 3057.5687,-86 3184.4313,-86 3184.4313,-122"/>
<text text-anchor="middle" x="3121" y="-99.8" font-family="Times,serif" font-size="14.00" fill="#000000">StreamsComponent</text>
</g>
<!-- StreamsModule -->
<g id="node12" class="node">
<title>StreamsModule</title>
<polygon fill="#8dd3c7" stroke="#000000" points="1595.1486,-187 1592.1486,-191 1571.1486,-191 1568.1486,-187 1490.8514,-187 1490.8514,-151 1595.1486,-151 1595.1486,-187"/>
<text text-anchor="middle" x="1543" y="-164.8" font-family="Times,serif" font-size="14.00" fill="#000000">StreamsModule</text>
</g>
<!-- StreamsComponent&#45;&gt;StreamsModule -->
<g id="edge1" class="edge">
<title>StreamsComponent&#45;&gt;StreamsModule</title>
<path fill="none" stroke="#000000" d="M3121,-122.1532C3121,-145.7566 3121,-184 3121,-184 3121,-184 1605.5029,-184 1605.5029,-184"/>
<polygon fill="#000000" stroke="#000000" points="1605.5029,-180.5001 1595.5029,-184 1605.5028,-187.5001 1605.5029,-180.5001"/>
</g>
<!-- StreamCreateComponent -->
<g id="node2" class="node">
<title>StreamCreateComponent</title>
<polygon fill="#ffffb3" stroke="#000000" points="3039.5183,-122 2882.4817,-122 2882.4817,-86 3039.5183,-86 3039.5183,-122"/>
<text text-anchor="middle" x="2961" y="-99.8" font-family="Times,serif" font-size="14.00" fill="#000000">StreamCreateComponent</text>
</g>
<!-- StreamCreateComponent&#45;&gt;StreamsModule -->
<g id="edge2" class="edge">
<title>StreamCreateComponent&#45;&gt;StreamsModule</title>
<path fill="none" stroke="#000000" d="M2961,-122.0109C2961,-144.4852 2961,-180 2961,-180 2961,-180 1605.1491,-180 1605.1491,-180"/>
<polygon fill="#000000" stroke="#000000" points="1605.1491,-176.5001 1595.1491,-180 1605.149,-183.5001 1605.1491,-176.5001"/>
</g>
<!-- StreamDefinitionsComponent -->
<g id="node3" class="node">
<title>StreamDefinitionsComponent</title>
<polygon fill="#ffffb3" stroke="#000000" points="2863.9748,-122 2680.0252,-122 2680.0252,-86 2863.9748,-86 2863.9748,-122"/>
<text text-anchor="middle" x="2772" y="-99.8" font-family="Times,serif" font-size="14.00" fill="#000000">StreamDefinitionsComponent</text>
</g>
<!-- StreamDefinitionsComponent&#45;&gt;StreamsModule -->
<g id="edge3" class="edge">
<title>StreamDefinitionsComponent&#45;&gt;StreamsModule</title>
<path fill="none" stroke="#000000" d="M2772,-122.0449C2772,-143.6623 2772,-177 2772,-177 2772,-177 1605.4154,-177 1605.4154,-177"/>
<polygon fill="#000000" stroke="#000000" points="1605.4155,-173.5001 1595.4154,-177 1605.4154,-180.5001 1605.4155,-173.5001"/>
</g>
<!-- StreamDetailsComponent -->
<g id="node4" class="node">
<title>StreamDetailsComponent</title>
<polygon fill="#ffffb3" stroke="#000000" points="2662.1386,-122 2501.8614,-122 2501.8614,-86 2662.1386,-86 2662.1386,-122"/>
<text text-anchor="middle" x="2582" y="-99.8" font-family="Times,serif" font-size="14.00" fill="#000000">StreamDetailsComponent</text>
</g>
<!-- StreamDetailsComponent&#45;&gt;StreamsModule -->
<g id="edge4" class="edge">
<title>StreamDetailsComponent&#45;&gt;StreamsModule</title>
<path fill="none" stroke="#000000" d="M2582,-122.1289C2582,-142.5724 2582,-173 2582,-173 2582,-173 1605.2362,-173 1605.2362,-173"/>
<polygon fill="#000000" stroke="#000000" points="1605.2362,-169.5001 1595.2362,-173 1605.2362,-176.5001 1605.2362,-169.5001"/>
</g>
<!-- StreamDeployComponent -->
<g id="node5" class="node">
<title>StreamDeployComponent</title>
<polygon fill="#ffffb3" stroke="#000000" points="2484.1979,-122 2321.8021,-122 2321.8021,-86 2484.1979,-86 2484.1979,-122"/>
<text text-anchor="middle" x="2403" y="-99.8" font-family="Times,serif" font-size="14.00" fill="#000000">StreamDeployComponent</text>
</g>
<!-- StreamDeployComponent&#45;&gt;StreamsModule -->
<g id="edge5" class="edge">
<title>StreamDeployComponent&#45;&gt;StreamsModule</title>
<path fill="none" stroke="#000000" d="M2403,-122.1061C2403,-141.3391 2403,-169 2403,-169 2403,-169 1605.1808,-169 1605.1808,-169"/>
<polygon fill="#000000" stroke="#000000" points="1605.1808,-165.5001 1595.1808,-169 1605.1807,-172.5001 1605.1808,-165.5001"/>
</g>
<!-- StreamCreateDialogComponent -->
<g id="node6" class="node">
<title>StreamCreateDialogComponent</title>
<polygon fill="#ffffb3" stroke="#000000" points="2303.6204,-122 2108.3796,-122 2108.3796,-86 2303.6204,-86 2303.6204,-122"/>
<text text-anchor="middle" x="2206" y="-99.8" font-family="Times,serif" font-size="14.00" fill="#000000">StreamCreateDialogComponent</text>
</g>
<!-- StreamCreateDialogComponent&#45;&gt;StreamsModule -->
<g id="edge6" class="edge">
<title>StreamCreateDialogComponent&#45;&gt;StreamsModule</title>
<path fill="none" stroke="#000000" d="M2206,-122.2667C2206,-140.5552 2206,-166 2206,-166 2206,-166 1605.3013,-166 1605.3013,-166"/>
<polygon fill="#000000" stroke="#000000" points="1605.3013,-162.5001 1595.3013,-166 1605.3012,-169.5001 1605.3013,-162.5001"/>
</g>
<!-- PropertiesDialogComponent -->
<g id="node7" class="node">
<title>PropertiesDialogComponent</title>
<polygon fill="#ffffb3" stroke="#000000" points="2090.1937,-122 1913.8063,-122 1913.8063,-86 2090.1937,-86 2090.1937,-122"/>
<text text-anchor="middle" x="2002" y="-99.8" font-family="Times,serif" font-size="14.00" fill="#000000">PropertiesDialogComponent</text>
</g>
<!-- PropertiesDialogComponent&#45;&gt;StreamsModule -->
<g id="edge7" class="edge">
<title>PropertiesDialogComponent&#45;&gt;StreamsModule</title>
<path fill="none" stroke="#000000" d="M2002,-122.0336C2002,-139.0597 2002,-162 2002,-162 2002,-162 1605.2063,-162 1605.2063,-162"/>
<polygon fill="#000000" stroke="#000000" points="1605.2063,-158.5001 1595.2063,-162 1605.2062,-165.5001 1605.2063,-158.5001"/>
</g>
<!-- NodeComponent -->
<g id="node8" class="node">
<title>NodeComponent</title>
<polygon fill="#ffffb3" stroke="#000000" points="1895.6541,-122 1784.3459,-122 1784.3459,-86 1895.6541,-86 1895.6541,-122"/>
<text text-anchor="middle" x="1840" y="-99.8" font-family="Times,serif" font-size="14.00" fill="#000000">NodeComponent</text>
</g>
<!-- NodeComponent&#45;&gt;StreamsModule -->
<g id="edge8" class="edge">
<title>NodeComponent&#45;&gt;StreamsModule</title>
<path fill="none" stroke="#000000" d="M1840,-122.0091C1840,-138.0494 1840,-159 1840,-159 1840,-159 1605.414,-159 1605.414,-159"/>
<polygon fill="#000000" stroke="#000000" points="1605.414,-155.5001 1595.414,-159 1605.4139,-162.5001 1605.414,-155.5001"/>
</g>
<!-- DecorationComponent -->
<g id="node9" class="node">
<title>DecorationComponent</title>
<polygon fill="#ffffb3" stroke="#000000" points="1765.5254,-122 1622.4746,-122 1622.4746,-86 1765.5254,-86 1765.5254,-122"/>
<text text-anchor="middle" x="1694" y="-99.8" font-family="Times,serif" font-size="14.00" fill="#000000">DecorationComponent</text>
</g>
<!-- DecorationComponent&#45;&gt;StreamsModule -->
<g id="edge9" class="edge">
<title>DecorationComponent&#45;&gt;StreamsModule</title>
<path fill="none" stroke="#000000" d="M1694,-122.1243C1694,-136.7832 1694,-155 1694,-155 1694,-155 1605.3887,-155 1605.3887,-155"/>
<polygon fill="#000000" stroke="#000000" points="1605.3887,-151.5001 1595.3887,-155 1605.3887,-158.5001 1605.3887,-151.5001"/>
</g>
<!-- HandleComponent -->
<g id="node10" class="node">
<title>HandleComponent</title>
<polygon fill="#ffffb3" stroke="#000000" points="1603.759,-122 1482.241,-122 1482.241,-86 1603.759,-86 1603.759,-122"/>
<text text-anchor="middle" x="1543" y="-99.8" font-family="Times,serif" font-size="14.00" fill="#000000">HandleComponent</text>
</g>
<!-- HandleComponent&#45;&gt;StreamsModule -->
<g id="edge10" class="edge">
<title>HandleComponent&#45;&gt;StreamsModule</title>
<path fill="none" stroke="#000000" d="M1543,-122.1061C1543,-122.1061 1543,-140.991 1543,-140.991"/>
<polygon fill="#000000" stroke="#000000" points="1539.5001,-140.9909 1543,-150.991 1546.5001,-140.991 1539.5001,-140.9909"/>
</g>
<!-- StreamGraphViewComponent -->
<g id="node11" class="node">
<title>StreamGraphViewComponent</title>
<polygon fill="#ffffb3" stroke="#000000" points="1464.2864,-122 1277.7136,-122 1277.7136,-86 1464.2864,-86 1464.2864,-122"/>
<text text-anchor="middle" x="1371" y="-99.8" font-family="Times,serif" font-size="14.00" fill="#000000">StreamGraphViewComponent</text>
</g>
<!-- StreamGraphViewComponent&#45;&gt;StreamsModule -->
<g id="edge11" class="edge">
<title>StreamGraphViewComponent&#45;&gt;StreamsModule</title>
<path fill="none" stroke="#000000" d="M1371,-122.1243C1371,-136.7832 1371,-155 1371,-155 1371,-155 1480.4597,-155 1480.4597,-155"/>
<polygon fill="#000000" stroke="#000000" points="1480.4598,-158.5001 1490.4597,-155 1480.4597,-151.5001 1480.4598,-158.5001"/>
</g>
<!-- StreamsRoutingModule -->
<g id="node13" class="node">
<title>StreamsRoutingModule</title>
<polygon fill="#8dd3c7" stroke="#000000" points="1253.766,-122 1250.766,-126 1229.766,-126 1226.766,-122 1104.234,-122 1104.234,-86 1253.766,-86 1253.766,-122"/>
<text text-anchor="middle" x="1179" y="-99.8" font-family="Times,serif" font-size="14.00" fill="#000000">StreamsRoutingModule</text>
</g>
<!-- StreamsRoutingModule&#45;&gt;StreamsModule -->
<g id="edge12" class="edge">
<title>StreamsRoutingModule&#45;&gt;StreamsModule</title>
<path fill="none" stroke="#000000" d="M1179,-122.0091C1179,-138.0494 1179,-159 1179,-159 1179,-159 1480.8477,-159 1480.8477,-159"/>
<polygon fill="#000000" stroke="#000000" points="1480.8477,-162.5001 1490.8477,-159 1480.8476,-155.5001 1480.8477,-162.5001"/>
</g>
<!-- SharedModule -->
<g id="node14" class="node">
<title>SharedModule</title>
<polygon fill="#8dd3c7" stroke="#000000" points="1086.4231,-122 1083.4231,-126 1062.4231,-126 1059.4231,-122 987.5769,-122 987.5769,-86 1086.4231,-86 1086.4231,-122"/>
<text text-anchor="middle" x="1037" y="-99.8" font-family="Times,serif" font-size="14.00" fill="#000000">SharedModule</text>
</g>
<!-- SharedModule&#45;&gt;StreamsModule -->
<g id="edge13" class="edge">
<title>SharedModule&#45;&gt;StreamsModule</title>
<path fill="none" stroke="#000000" d="M1037,-122.0336C1037,-139.0597 1037,-162 1037,-162 1037,-162 1480.7549,-162 1480.7549,-162"/>
<polygon fill="#000000" stroke="#000000" points="1480.755,-165.5001 1490.7549,-162 1480.7549,-158.5001 1480.755,-165.5001"/>
</g>
<!-- AuthModule -->
<g id="node15" class="node">
<title>AuthModule</title>
<polygon fill="#8dd3c7" stroke="#000000" points="969.5482,-122 966.5482,-126 945.5482,-126 942.5482,-122 882.4518,-122 882.4518,-86 969.5482,-86 969.5482,-122"/>
<text text-anchor="middle" x="926" y="-99.8" font-family="Times,serif" font-size="14.00" fill="#000000">AuthModule</text>
</g>
<!-- AuthModule&#45;&gt;StreamsModule -->
<g id="edge14" class="edge">
<title>AuthModule&#45;&gt;StreamsModule</title>
<path fill="none" stroke="#000000" d="M926,-122.2667C926,-140.5552 926,-166 926,-166 926,-166 1480.6611,-166 1480.6611,-166"/>
<polygon fill="#000000" stroke="#000000" points="1480.6611,-169.5001 1490.6611,-166 1480.6611,-162.5001 1480.6611,-169.5001"/>
</g>
<!-- StreamsService -->
<g id="node16" class="node">
<title>StreamsService</title>
<ellipse fill="#fdb462" stroke="#000000" cx="787" cy="-104" rx="71.1998" ry="18"/>
<text text-anchor="middle" x="787" y="-99.8" font-family="Times,serif" font-size="14.00" fill="#000000">StreamsService</text>
</g>
<!-- StreamsService&#45;&gt;StreamsModule -->
<g id="edge15" class="edge">
<title>StreamsService&#45;&gt;StreamsModule</title>
<path fill="none" stroke="#000000" d="M787,-122.1061C787,-141.3391 787,-169 787,-169 787,-169 1480.7388,-169 1480.7388,-169"/>
<polygon fill="#000000" stroke="#000000" points="1480.7388,-172.5001 1490.7388,-169 1480.7387,-165.5001 1480.7388,-172.5001"/>
</g>
<!-- MetamodelService -->
<g id="node17" class="node">
<title>MetamodelService</title>
<ellipse fill="#fdb462" stroke="#000000" cx="614" cy="-104" rx="83.945" ry="18"/>
<text text-anchor="middle" x="614" y="-99.8" font-family="Times,serif" font-size="14.00" fill="#000000">MetamodelService</text>
</g>
<!-- MetamodelService&#45;&gt;StreamsModule -->
<g id="edge16" class="edge">
<title>MetamodelService&#45;&gt;StreamsModule</title>
<path fill="none" stroke="#000000" d="M614,-122.1289C614,-142.5724 614,-173 614,-173 614,-173 1480.7272,-173 1480.7272,-173"/>
<polygon fill="#000000" stroke="#000000" points="1480.7272,-176.5001 1490.7272,-173 1480.7272,-169.5001 1480.7272,-176.5001"/>
</g>
<!-- RenderService -->
<g id="node18" class="node">
<title>RenderService</title>
<ellipse fill="#fdb462" stroke="#000000" cx="444" cy="-104" rx="67.7548" ry="18"/>
<text text-anchor="middle" x="444" y="-99.8" font-family="Times,serif" font-size="14.00" fill="#000000">RenderService</text>
</g>
<!-- RenderService&#45;&gt;StreamsModule -->
<g id="edge17" class="edge">
<title>RenderService&#45;&gt;StreamsModule</title>
<path fill="none" stroke="#000000" d="M444,-122.0449C444,-143.6623 444,-177 444,-177 444,-177 1480.7323,-177 1480.7323,-177"/>
<polygon fill="#000000" stroke="#000000" points="1480.7323,-180.5001 1490.7323,-177 1480.7323,-173.5001 1480.7323,-180.5001"/>
</g>
<!-- EditorService -->
<g id="node19" class="node">
<title>EditorService</title>
<ellipse fill="#fdb462" stroke="#000000" cx="294" cy="-104" rx="64.261" ry="18"/>
<text text-anchor="middle" x="294" y="-99.8" font-family="Times,serif" font-size="14.00" fill="#000000">EditorService</text>
</g>
<!-- EditorService&#45;&gt;StreamsModule -->
<g id="edge18" class="edge">
<title>EditorService&#45;&gt;StreamsModule</title>
<path fill="none" stroke="#000000" d="M294,-122.0109C294,-144.4852 294,-180 294,-180 294,-180 1480.5267,-180 1480.5267,-180"/>
<polygon fill="#000000" stroke="#000000" points="1480.5267,-183.5001 1490.5267,-180 1480.5266,-176.5001 1480.5267,-183.5001"/>
</g>
<!-- ContentAssistService -->
<g id="node20" class="node">
<title>ContentAssistService</title>
<ellipse fill="#fdb462" stroke="#000000" cx="118" cy="-104" rx="94.3543" ry="18"/>
<text text-anchor="middle" x="118" y="-99.8" font-family="Times,serif" font-size="14.00" fill="#000000">ContentAssistService</text>
</g>
<!-- ContentAssistService&#45;&gt;StreamsModule -->
<g id="edge19" class="edge">
<title>ContentAssistService&#45;&gt;StreamsModule</title>
<path fill="none" stroke="#000000" d="M118,-122.1532C118,-145.7566 118,-184 118,-184 118,-184 1480.5935,-184 1480.5935,-184"/>
<polygon fill="#000000" stroke="#000000" points="1480.5935,-187.5001 1490.5935,-184 1480.5935,-180.5001 1480.5935,-187.5001"/>
</g>
</g>
</svg>
