<?xml version="1.0" encoding="UTF-8" standalone="no"?>
<!DOCTYPE svg PUBLIC "-//W3C//DTD SVG 1.1//EN"
 "http://www.w3.org/Graphics/SVG/1.1/DTD/svg11.dtd">
<!-- Generated by graphviz version 2.40.1 (20161225.0304)
 -->
<!-- Title: dependencies Pages: 1 -->
<svg width="2430pt" height="211pt"
 viewBox="0.00 0.00 2430.00 211.00" xmlns="http://www.w3.org/2000/svg" xmlns:xlink="http://www.w3.org/1999/xlink">
<g id="graph0" class="graph" transform="scale(1 1) rotate(0) translate(4 207)">
<title>dependencies</title>
<polygon fill="#ffffff" stroke="transparent" points="-4,4 -4,-207 2426,-207 2426,4 -4,4"/>
<text text-anchor="start" x="1190.0091" y="-42.4" font-family="sans-serif" font-weight="bold" font-size="14.00" fill="#000000">Legend</text>
<polygon fill="#ffffb3" stroke="transparent" points="977,-10 977,-30 997,-30 997,-10 977,-10"/>
<text text-anchor="start" x="1000.629" y="-15.4" font-family="sans-serif" font-size="14.00" fill="#000000"> &#160;Declarations</text>
<polygon fill="#8dd3c7" stroke="transparent" points="1090,-10 1090,-30 1110,-30 1110,-10 1090,-10"/>
<text text-anchor="start" x="1113.7251" y="-15.4" font-family="sans-serif" font-size="14.00" fill="#000000"> &#160;Module</text>
<polygon fill="#80b1d3" stroke="transparent" points="1176,-10 1176,-30 1196,-30 1196,-10 1176,-10"/>
<text text-anchor="start" x="1199.7812" y="-15.4" font-family="sans-serif" font-size="14.00" fill="#000000"> &#160;Bootstrap</text>
<polygon fill="#fdb462" stroke="transparent" points="1273,-10 1273,-30 1293,-30 1293,-10 1273,-10"/>
<text text-anchor="start" x="1296.6732" y="-15.4" font-family="sans-serif" font-size="14.00" fill="#000000"> &#160;Providers</text>
<polygon fill="#fb8072" stroke="transparent" points="1369,-10 1369,-30 1389,-30 1389,-10 1369,-10"/>
<text text-anchor="start" x="1392.7258" y="-15.4" font-family="sans-serif" font-size="14.00" fill="#000000"> &#160;Exports</text>
<g id="clust1" class="cluster">
<title>cluster_TasksModule</title>
<polygon fill="none" stroke="#000000" stroke-dasharray="1,5" points="8,-70 8,-195 2414,-195 2414,-70 8,-70"/>
</g>
<g id="clust2" class="cluster">
<title>cluster_TasksModule_declarations</title>
<polygon fill="none" stroke="#000000" points="550,-78 550,-130 2406,-130 2406,-78 550,-78"/>
</g>
<g id="clust13" class="cluster">
<title>cluster_TasksModule_imports</title>
<polygon fill="none" stroke="#000000" points="166,-78 166,-130 542,-130 542,-78 166,-78"/>
</g>
<g id="clust16" class="cluster">
<title>cluster_TasksModule_providers</title>
<polygon fill="none" stroke="#000000" points="16,-78 16,-130 158,-130 158,-78 16,-78"/>
</g>
<!-- TasksComponent -->
<g id="node1" class="node">
<title>TasksComponent</title>
<polygon fill="#ffffb3" stroke="#000000" points="2397.9888,-122 2284.0112,-122 2284.0112,-86 2397.9888,-86 2397.9888,-122"/>
<text text-anchor="middle" x="2341" y="-99.8" font-family="Times,serif" font-size="14.00" fill="#000000">TasksComponent</text>
</g>
<!-- TasksModule -->
<g id="node11" class="node">
<title>TasksModule</title>
<polygon fill="#8dd3c7" stroke="#000000" points="1124.2064,-187 1121.2064,-191 1100.2064,-191 1097.2064,-187 1031.7936,-187 1031.7936,-151 1124.2064,-151 1124.2064,-187"/>
<text text-anchor="middle" x="1078" y="-164.8" font-family="Times,serif" font-size="14.00" fill="#000000">TasksModule</text>
</g>
<!-- TasksComponent&#45;&gt;TasksModule -->
<g id="edge1" class="edge">
<title>TasksComponent&#45;&gt;TasksModule</title>
<path fill="none" stroke="#000000" d="M2341,-122.0908C2341,-145.1328 2341,-182 2341,-182 2341,-182 1134.4487,-182 1134.4487,-182"/>
<polygon fill="#000000" stroke="#000000" points="1134.4488,-178.5001 1124.4487,-182 1134.4487,-185.5001 1134.4488,-178.5001"/>
</g>
<!-- TaskAppsComponent -->
<g id="node2" class="node">
<title>TaskAppsComponent</title>
<polygon fill="#ffffb3" stroke="#000000" points="2266.0954,-122 2127.9046,-122 2127.9046,-86 2266.0954,-86 2266.0954,-122"/>
<text text-anchor="middle" x="2197" y="-99.8" font-family="Times,serif" font-size="14.00" fill="#000000">TaskAppsComponent</text>
</g>
<!-- TaskAppsComponent&#45;&gt;TasksModule -->
<g id="edge2" class="edge">
<title>TaskAppsComponent&#45;&gt;TasksModule</title>
<path fill="none" stroke="#000000" d="M2197,-122.0449C2197,-143.6623 2197,-177 2197,-177 2197,-177 1134.3042,-177 1134.3042,-177"/>
<polygon fill="#000000" stroke="#000000" points="1134.3043,-173.5001 1124.3042,-177 1134.3042,-180.5001 1134.3043,-173.5001"/>
</g>
<!-- TaskDefinitionsComponent -->
<g id="node3" class="node">
<title>TaskDefinitionsComponent</title>
<polygon fill="#ffffb3" stroke="#000000" points="2109.5336,-122 1938.4664,-122 1938.4664,-86 2109.5336,-86 2109.5336,-122"/>
<text text-anchor="middle" x="2024" y="-99.8" font-family="Times,serif" font-size="14.00" fill="#000000">TaskDefinitionsComponent</text>
</g>
<!-- TaskDefinitionsComponent&#45;&gt;TasksModule -->
<g id="edge3" class="edge">
<title>TaskDefinitionsComponent&#45;&gt;TasksModule</title>
<path fill="none" stroke="#000000" d="M2024,-122.2228C2024,-142.3652 2024,-172 2024,-172 2024,-172 1134.2679,-172 1134.2679,-172"/>
<polygon fill="#000000" stroke="#000000" points="1134.268,-168.5001 1124.2679,-172 1134.2679,-175.5001 1134.268,-168.5001"/>
</g>
<!-- TaskCreateComposedTaskComponent -->
<g id="node4" class="node">
<title>TaskCreateComposedTaskComponent</title>
<polygon fill="#ffffb3" stroke="#000000" points="1920.1741,-122 1687.8259,-122 1687.8259,-86 1920.1741,-86 1920.1741,-122"/>
<text text-anchor="middle" x="1804" y="-99.8" font-family="Times,serif" font-size="14.00" fill="#000000">TaskCreateComposedTaskComponent</text>
</g>
<!-- TaskCreateComposedTaskComponent&#45;&gt;TasksModule -->
<g id="edge4" class="edge">
<title>TaskCreateComposedTaskComponent&#45;&gt;TasksModule</title>
<path fill="none" stroke="#000000" d="M1804,-122.2222C1804,-140.8285 1804,-167 1804,-167 1804,-167 1134.2418,-167 1134.2418,-167"/>
<polygon fill="#000000" stroke="#000000" points="1134.2418,-163.5001 1124.2418,-167 1134.2418,-170.5001 1134.2418,-163.5001"/>
</g>
<!-- TaskExecutionsComponent -->
<g id="node5" class="node">
<title>TaskExecutionsComponent</title>
<polygon fill="#ffffb3" stroke="#000000" points="1670.252,-122 1499.748,-122 1499.748,-86 1670.252,-86 1670.252,-122"/>
<text text-anchor="middle" x="1585" y="-99.8" font-family="Times,serif" font-size="14.00" fill="#000000">TaskExecutionsComponent</text>
</g>
<!-- TaskExecutionsComponent&#45;&gt;TasksModule -->
<g id="edge5" class="edge">
<title>TaskExecutionsComponent&#45;&gt;TasksModule</title>
<path fill="none" stroke="#000000" d="M1585,-122.0336C1585,-139.0597 1585,-162 1585,-162 1585,-162 1134.3369,-162 1134.3369,-162"/>
<polygon fill="#000000" stroke="#000000" points="1134.3369,-158.5001 1124.3369,-162 1134.3369,-165.5001 1134.3369,-158.5001"/>
</g>
<!-- TaskExecutionsDetailsComponent -->
<g id="node6" class="node">
<title>TaskExecutionsDetailsComponent</title>
<polygon fill="#ffffb3" stroke="#000000" points="1481.4044,-122 1270.5956,-122 1270.5956,-86 1481.4044,-86 1481.4044,-122"/>
<text text-anchor="middle" x="1376" y="-99.8" font-family="Times,serif" font-size="14.00" fill="#000000">TaskExecutionsDetailsComponent</text>
</g>
<!-- TaskExecutionsDetailsComponent&#45;&gt;TasksModule -->
<g id="edge6" class="edge">
<title>TaskExecutionsDetailsComponent&#45;&gt;TasksModule</title>
<path fill="none" stroke="#000000" d="M1376,-122.2396C1376,-137.5706 1376,-157 1376,-157 1376,-157 1134.2355,-157 1134.2355,-157"/>
<polygon fill="#000000" stroke="#000000" points="1134.2356,-153.5001 1124.2355,-157 1134.2355,-160.5001 1134.2356,-153.5001"/>
</g>
<!-- TaskAppDetailsComponent -->
<g id="node7" class="node">
<title>TaskAppDetailsComponent</title>
<polygon fill="#ffffb3" stroke="#000000" points="1253.3033,-122 1080.6967,-122 1080.6967,-86 1253.3033,-86 1253.3033,-122"/>
<text text-anchor="middle" x="1167" y="-99.8" font-family="Times,serif" font-size="14.00" fill="#000000">TaskAppDetailsComponent</text>
</g>
<!-- TaskAppDetailsComponent&#45;&gt;TasksModule -->
<g id="edge7" class="edge">
<title>TaskAppDetailsComponent&#45;&gt;TasksModule</title>
<path fill="none" stroke="#000000" d="M1102.4758,-122.1061C1102.4758,-122.1061 1102.4758,-140.991 1102.4758,-140.991"/>
<polygon fill="#000000" stroke="#000000" points="1098.9759,-140.9909 1102.4758,-150.991 1105.9759,-140.991 1098.9759,-140.9909"/>
</g>
<!-- TaskCreateComponent -->
<g id="node8" class="node">
<title>TaskCreateComponent</title>
<polygon fill="#ffffb3" stroke="#000000" points="1062.5758,-122 917.4242,-122 917.4242,-86 1062.5758,-86 1062.5758,-122"/>
<text text-anchor="middle" x="990" y="-99.8" font-family="Times,serif" font-size="14.00" fill="#000000">TaskCreateComponent</text>
</g>
<!-- TaskCreateComponent&#45;&gt;TasksModule -->
<g id="edge8" class="edge">
<title>TaskCreateComponent&#45;&gt;TasksModule</title>
<path fill="none" stroke="#000000" d="M1047.2174,-122.1061C1047.2174,-122.1061 1047.2174,-140.991 1047.2174,-140.991"/>
<polygon fill="#000000" stroke="#000000" points="1043.7175,-140.9909 1047.2174,-150.991 1050.7175,-140.991 1043.7175,-140.9909"/>
</g>
<!-- TaskBulkDefineComponent -->
<g id="node9" class="node">
<title>TaskBulkDefineComponent</title>
<polygon fill="#ffffb3" stroke="#000000" points="899.8585,-122 726.1415,-122 726.1415,-86 899.8585,-86 899.8585,-122"/>
<text text-anchor="middle" x="813" y="-99.8" font-family="Times,serif" font-size="14.00" fill="#000000">TaskBulkDefineComponent</text>
</g>
<!-- TaskBulkDefineComponent&#45;&gt;TasksModule -->
<g id="edge9" class="edge">
<title>TaskBulkDefineComponent&#45;&gt;TasksModule</title>
<path fill="none" stroke="#000000" d="M813,-122.2396C813,-137.5706 813,-157 813,-157 813,-157 1021.8405,-157 1021.8405,-157"/>
<polygon fill="#000000" stroke="#000000" points="1021.8406,-160.5001 1031.8405,-157 1021.8405,-153.5001 1021.8406,-160.5001"/>
</g>
<!-- TaskLaunchComponent -->
<g id="node10" class="node">
<title>TaskLaunchComponent</title>
<polygon fill="#ffffb3" stroke="#000000" points="708.0267,-122 557.9733,-122 557.9733,-86 708.0267,-86 708.0267,-122"/>
<text text-anchor="middle" x="633" y="-99.8" font-family="Times,serif" font-size="14.00" fill="#000000">TaskLaunchComponent</text>
</g>
<!-- TaskLaunchComponent&#45;&gt;TasksModule -->
<g id="edge10" class="edge">
<title>TaskLaunchComponent&#45;&gt;TasksModule</title>
<path fill="none" stroke="#000000" d="M633,-122.0336C633,-139.0597 633,-162 633,-162 633,-162 1021.6365,-162 1021.6365,-162"/>
<polygon fill="#000000" stroke="#000000" points="1021.6366,-165.5001 1031.6365,-162 1021.6365,-158.5001 1021.6366,-165.5001"/>
</g>
<!-- TasksRoutingModule -->
<g id="node12" class="node">
<title>TasksRoutingModule</title>
<polygon fill="#8dd3c7" stroke="#000000" points="533.8244,-122 530.8244,-126 509.8244,-126 506.8244,-122 396.1756,-122 396.1756,-86 533.8244,-86 533.8244,-122"/>
<text text-anchor="middle" x="465" y="-99.8" font-family="Times,serif" font-size="14.00" fill="#000000">TasksRoutingModule</text>
</g>
<!-- TasksRoutingModule&#45;&gt;TasksModule -->
<g id="edge11" class="edge">
<title>TasksRoutingModule&#45;&gt;TasksModule</title>
<path fill="none" stroke="#000000" d="M465,-122.2222C465,-140.8285 465,-167 465,-167 465,-167 1021.6741,-167 1021.6741,-167"/>
<polygon fill="#000000" stroke="#000000" points="1021.6741,-170.5001 1031.6741,-167 1021.6741,-163.5001 1021.6741,-170.5001"/>
</g>
<!-- SharedModule -->
<g id="node13" class="node">
<title>SharedModule</title>
<polygon fill="#8dd3c7" stroke="#000000" points="378.4231,-122 375.4231,-126 354.4231,-126 351.4231,-122 279.5769,-122 279.5769,-86 378.4231,-86 378.4231,-122"/>
<text text-anchor="middle" x="329" y="-99.8" font-family="Times,serif" font-size="14.00" fill="#000000">SharedModule</text>
</g>
<!-- SharedModule&#45;&gt;TasksModule -->
<g id="edge12" class="edge">
<title>SharedModule&#45;&gt;TasksModule</title>
<path fill="none" stroke="#000000" d="M329,-122.2228C329,-142.3652 329,-172 329,-172 329,-172 1021.7119,-172 1021.7119,-172"/>
<polygon fill="#000000" stroke="#000000" points="1021.712,-175.5001 1031.7119,-172 1021.7119,-168.5001 1021.712,-175.5001"/>
</g>
<!-- AuthModule -->
<g id="node14" class="node">
<title>AuthModule</title>
<polygon fill="#8dd3c7" stroke="#000000" points="261.5482,-122 258.5482,-126 237.5482,-126 234.5482,-122 174.4518,-122 174.4518,-86 261.5482,-86 261.5482,-122"/>
<text text-anchor="middle" x="218" y="-99.8" font-family="Times,serif" font-size="14.00" fill="#000000">AuthModule</text>
</g>
<!-- AuthModule&#45;&gt;TasksModule -->
<g id="edge13" class="edge">
<title>AuthModule&#45;&gt;TasksModule</title>
<path fill="none" stroke="#000000" d="M218,-122.0449C218,-143.6623 218,-177 218,-177 218,-177 1021.7627,-177 1021.7627,-177"/>
<polygon fill="#000000" stroke="#000000" points="1021.7627,-180.5001 1031.7627,-177 1021.7626,-173.5001 1021.7627,-180.5001"/>
</g>
<!-- TasksService -->
<g id="node15" class="node">
<title>TasksService</title>
<ellipse fill="#fdb462" stroke="#000000" cx="87" cy="-104" rx="62.5354" ry="18"/>
<text text-anchor="middle" x="87" y="-99.8" font-family="Times,serif" font-size="14.00" fill="#000000">TasksService</text>
</g>
<!-- TasksService&#45;&gt;TasksModule -->
<g id="edge14" class="edge">
<title>TasksService&#45;&gt;TasksModule</title>
<path fill="none" stroke="#000000" d="M87,-122.0908C87,-145.1328 87,-182 87,-182 87,-182 1021.8609,-182 1021.8609,-182"/>
<polygon fill="#000000" stroke="#000000" points="1021.8609,-185.5001 1031.8609,-182 1021.8609,-178.5001 1021.8609,-185.5001"/>
</g>
</g>
</svg>
